<svg width="30" height="13" viewBox="0 0 30 13" fill="none" xmlns="http://www.w3.org/2000/svg">
<path fill-rule="evenodd" clip-rule="evenodd" d="M12.8903 6.55733C12.8596 9.63753 10.3531 12.125 7.26562 12.125C4.15903 12.125 1.64062 9.60659 1.64062 6.5C1.64062 6.42148 1.64223 6.34334 1.64542 6.26562H0.703125C0.314801 6.26562 0 5.95084 0 5.5625C0 5.17416 0.314801 4.85938 0.703125 4.85938H1.88365C2.58579 2.55308 4.72973 0.875 7.26562 0.875C9.84987 0.875 12.0271 2.6177 12.6862 4.99201C13.8328 4.37021 15.2297 4.37021 16.3763 4.99203C17.0354 2.6177 19.2126 0.875 21.7969 0.875C24.3328 0.875 26.4766 2.55308 27.1788 4.85938H28.3594C28.7477 4.85938 29.0625 5.17416 29.0625 5.5625C29.0625 5.95084 28.7477 6.26562 28.3594 6.26562H27.4172C27.4202 6.34334 27.4219 6.42148 27.4219 6.5C27.4219 9.60659 24.9035 12.125 21.7969 12.125C18.7094 12.125 16.2029 9.63753 16.1722 6.55733C15.2406 5.72344 13.8219 5.72344 12.8903 6.55733ZM11.4844 6.5C11.4844 8.82995 9.59557 10.7188 7.26562 10.7188C4.93568 10.7188 3.04688 8.82995 3.04688 6.5C3.04688 4.17005 4.93568 2.28125 7.26562 2.28125C9.59557 2.28125 11.4844 4.17005 11.4844 6.5ZM21.7969 10.7188C24.1268 10.7188 26.0156 8.82995 26.0156 6.5C26.0156 4.17005 24.1268 2.28125 21.7969 2.28125C19.4669 2.28125 17.5781 4.17005 17.5781 6.5C17.5781 8.82995 19.4669 10.7188 21.7969 10.7188Z" fill="#DAEF14"/>
</svg>
