<svg width="144" height="21" viewBox="0 0 144 21" fill="none" xmlns="http://www.w3.org/2000/svg">
<g clip-path="url(#clip0_701_1146)">
<path d="M5.69096 3.66846C8.78392 3.66846 11.2684 6.02675 11.2684 9.22354C11.2684 12.3679 8.73321 14.7786 5.84307 14.7786C4.47406 14.7786 3.15575 14.3594 2.19237 13.2064H2.09096V21.277H0.012085V10.062C0.012085 6.18397 2.19237 3.66846 5.69096 3.66846ZM5.64025 12.892C7.66842 12.892 9.08814 11.215 9.08814 9.17113C9.08814 7.17969 7.71913 5.50268 5.64025 5.50268C3.56138 5.50268 2.14166 7.12728 2.14166 9.17113C2.14166 11.215 3.61209 12.892 5.64025 12.892Z" fill="#DAEF14"/>
<path d="M13.1954 9.22354C13.1954 6.02675 15.7813 3.66846 18.8235 3.66846C21.8658 3.66846 24.4517 6.02675 24.4517 9.22354C24.4517 12.4203 21.8658 14.7786 18.8235 14.7786C15.7813 14.7786 13.1954 12.4203 13.1954 9.22354ZM18.8235 12.892C20.9024 12.892 22.2714 11.2674 22.2714 9.22354C22.2714 7.17969 20.8517 5.55509 18.8235 5.55509C16.7954 5.55509 15.3757 7.17969 15.3757 9.22354C15.3757 11.2674 16.7447 12.892 18.8235 12.892Z" fill="#DAEF14"/>
<path d="M32.0574 14.7786C28.8123 14.7786 26.3785 12.4203 26.3785 9.22354C26.3785 6.02675 28.7616 3.66846 32.0066 3.66846C34.4912 3.66846 36.7728 5.03102 37.3813 7.70375H35.2517C34.7447 6.28878 33.4771 5.55509 32.0574 5.55509C29.8771 5.55509 28.5588 7.23209 28.5588 9.27594C28.5588 11.3198 29.9278 12.9444 32.1081 12.9444C33.5278 12.9444 34.7954 12.2631 35.3024 10.7433H37.432C36.6714 13.4685 34.4405 14.7786 32.0574 14.7786Z" fill="#DAEF14"/>
<path d="M45.0883 13.2589L41.6911 5.92202H41.6404V14.5691H39.663V3.87817H42.8066L46.1531 11.1627H46.2038L49.5503 3.87817H52.694V14.5167H50.7165V5.92202H50.6658L47.2686 13.2589H45.0883Z" fill="#DAEF14"/>
<path d="M54.9249 9.22354C54.9249 6.02675 57.5108 3.66846 60.5531 3.66846C63.5953 3.66846 66.1813 6.02675 66.1813 9.22354C66.1813 12.4203 63.5953 14.7786 60.5531 14.7786C57.5108 14.7786 54.9249 12.4203 54.9249 9.22354ZM60.6038 12.892C62.6827 12.892 64.0517 11.2674 64.0517 9.22354C64.0517 7.17969 62.632 5.55509 60.6038 5.55509C58.5249 5.55509 57.1559 7.17969 57.1559 9.22354C57.1052 11.2674 58.5249 12.892 60.6038 12.892Z" fill="#DAEF14"/>
<path d="M67.2461 14.6214V12.4203H67.2968C67.7024 12.4203 68.1588 12.2631 68.463 11.8963C68.8686 11.477 69.0207 10.6385 69.2236 9.48558L69.5278 7.75616C69.8827 5.81713 70.5419 3.82568 73.3813 3.82568H77.3869V14.5166H75.3081V5.81713H73.6855C72.063 5.81713 71.7588 6.28878 71.3531 8.54226L71.0996 10.1145C70.8461 11.5818 70.4912 12.8396 69.7813 13.6257C69.2236 14.2546 68.463 14.569 67.3982 14.569H67.2461V14.6214Z" fill="#DAEF14"/>
<path d="M79.7193 9.22354C79.7193 6.02675 82.3052 3.66846 85.3475 3.66846C88.3897 3.66846 90.9756 6.02675 90.9756 9.22354C90.9756 12.4203 88.3897 14.7786 85.3475 14.7786C82.3052 14.7786 79.7193 12.4203 79.7193 9.22354ZM85.3475 12.892C87.4263 12.892 88.7954 11.2674 88.7954 9.22354C88.7954 7.17969 87.3756 5.55509 85.3475 5.55509C83.2686 5.55509 81.8996 7.17969 81.8996 9.22354C81.8996 11.2674 83.3193 12.892 85.3475 12.892Z" fill="#DAEF14"/>
<path d="M93.4094 17.1369H91.4319V12.5776H92.7503C93.3587 11.8963 93.6629 10.8481 93.9165 9.6428L94.3728 7.65135C94.7784 5.76472 95.5897 3.82568 98.1249 3.82568H102.131V12.5776H103.601V17.1369H101.623V14.569H93.3587V17.1369H93.4094ZM100.102 12.63V5.81713H98.1756C96.908 5.81713 96.5024 6.86526 96.2488 7.96579L95.7925 10.0096C95.539 11.1626 95.1841 12.1059 94.7784 12.4727V12.63H100.102Z" fill="#DAEF14"/>
<path d="M110.801 14.7786C107.505 14.7786 105.122 12.4203 105.122 9.22353C105.122 6.02674 107.505 3.66845 110.7 3.66845C113.184 3.66845 116.125 5.34546 116.125 9.38075V9.8H107.15C107.353 11.5818 108.722 12.892 110.75 12.892C111.967 12.892 113.387 12.4203 113.793 11.3722H115.922C115.314 13.7305 112.931 14.7786 110.801 14.7786ZM107.252 0H109.381V2.20107H107.252V0ZM114.046 8.1754C113.742 6.5508 112.525 5.50267 110.7 5.50267C108.925 5.50267 107.657 6.65562 107.302 8.1754H114.046ZM111.866 0H113.995V2.20107H111.866V0Z" fill="#DAEF14"/>
<path d="M125.911 3.87817V8.12309H127.635L130.069 3.87817H132.35L129.308 8.9616L132.553 14.5167H130.221L127.635 10.0097H125.86V14.5167H123.933V10.0097H122.209L119.624 14.5167H117.291L120.536 8.9616L117.494 3.87817H119.776L122.209 8.12309H123.933V3.87817H125.911Z" fill="#DAEF14"/>
<path d="M134.024 9.74769L133.973 3.87817H136.052V6.91775H136.102C136.964 5.81721 138.08 5.29315 139.398 5.29315C141.933 5.29315 143.962 7.23219 143.962 9.95732C143.962 12.7349 141.883 14.7787 138.993 14.7787C136.153 14.7787 134.024 12.6825 134.024 9.74769ZM138.993 12.8921C140.615 12.8921 141.832 11.6867 141.832 10.0621C141.832 8.43753 140.615 7.17978 138.993 7.17978C137.37 7.17978 136.204 8.38513 136.204 10.0621C136.204 11.7391 137.37 12.8921 138.993 12.8921Z" fill="#DAEF14"/>
</g>
<defs>
<clipPath id="clip0_701_1146">
<rect width="144" height="21" fill="white"/>
</clipPath>
</defs>
</svg>
