<svg width="17" height="17" viewBox="0 0 17 17" fill="none" xmlns="http://www.w3.org/2000/svg">
<g clip-path="url(#clip0_701_1224)">
<path d="M10.6525 8.29771C11.3412 7.73842 11.8447 6.96986 12.0927 6.09922C12.3408 5.22857 12.321 4.29924 12.0362 3.44082C11.7514 2.5824 11.2157 1.83768 10.5039 1.31051C9.79207 0.78334 8.93958 0.5 8.0653 0.5C7.19102 0.5 6.33853 0.78334 5.62671 1.31051C4.9149 1.83768 4.37923 2.5824 4.09442 3.44082C3.8096 4.29924 3.78983 5.22857 4.03787 6.09922C4.28591 6.96986 4.78939 7.73842 5.4781 8.29771C4.17692 8.83539 3.06077 9.7657 2.27369 10.9686C1.48661 12.1715 1.06473 13.5918 1.0625 15.0461V15.773C1.0625 15.9658 1.13625 16.1507 1.26753 16.2871C1.3988 16.4234 1.57685 16.5 1.7625 16.5H14.3625C14.5482 16.5 14.7262 16.4234 14.8575 16.2871C14.9888 16.1507 15.0625 15.9658 15.0625 15.773V15.0461C15.0607 13.5924 14.6397 12.1726 13.8536 10.9698C13.0676 9.76701 11.9526 8.8363 10.6525 8.29771ZM5.2625 4.86865C5.2625 4.29353 5.42672 3.73133 5.73439 3.25314C6.04205 2.77495 6.47935 2.40224 6.99099 2.18215C7.50262 1.96207 8.06561 1.90448 8.60875 2.01668C9.1519 2.12888 9.65081 2.40583 10.0424 2.81249C10.434 3.21916 10.7007 3.73729 10.8087 4.30136C10.9167 4.86542 10.8613 5.45009 10.6494 5.98143C10.4374 6.51277 10.0786 6.96691 9.6181 7.28643C9.15764 7.60594 8.61629 7.77648 8.0625 7.77648C7.31989 7.77648 6.6077 7.47012 6.0826 6.9248C5.5575 6.37947 5.2625 5.63985 5.2625 4.86865ZM2.4625 15.0461C2.4625 13.5037 3.0525 12.0244 4.1027 10.9338C5.15291 9.84312 6.57729 9.2304 8.0625 9.2304C9.54771 9.2304 10.9721 9.84312 12.0223 10.9338C13.0725 12.0244 13.6625 13.5037 13.6625 15.0461H2.4625Z" fill="#DAEF14"/>
</g>
<defs>
<clipPath id="clip0_701_1224">
<rect width="16" height="16" fill="white" transform="translate(0.0625 0.5)"/>
</clipPath>
</defs>
</svg>
