<svg width="17" height="17" viewBox="0 0 17 17" fill="none" xmlns="http://www.w3.org/2000/svg">
<g clip-path="url(#clip0_701_1192)">
<path d="M15.5513 15.0735L11.7433 11.1129C12.7224 9.94901 13.2589 8.48455 13.2589 6.95999C13.2589 3.39801 10.3608 0.5 6.79886 0.5C3.23688 0.5 0.338867 3.39801 0.338867 6.95999C0.338867 10.522 3.23688 13.42 6.79886 13.42C8.13608 13.42 9.41038 13.0167 10.4999 12.251L14.3368 16.2416C14.4972 16.4082 14.7129 16.5 14.9441 16.5C15.1629 16.5 15.3704 16.4166 15.528 16.2649C15.8628 15.9428 15.8735 15.4085 15.5513 15.0735ZM6.79886 2.18522C9.43173 2.18522 11.5736 4.32713 11.5736 6.95999C11.5736 9.59286 9.43173 11.7348 6.79886 11.7348C4.16599 11.7348 2.02408 9.59286 2.02408 6.95999C2.02408 4.32713 4.16599 2.18522 6.79886 2.18522Z" fill="#DAEF14"/>
</g>
<defs>
<clipPath id="clip0_701_1192">
<rect width="16" height="16" fill="white" transform="translate(0.0625 0.5)"/>
</clipPath>
</defs>
</svg>
