<svg width="17" height="17" viewBox="0 0 17 17" fill="none" xmlns="http://www.w3.org/2000/svg">
<g clip-path="url(#clip0_701_1235)">
<path d="M15.3598 9.77172L14.6942 9.22378C14.2383 8.84844 14.2391 8.15081 14.6942 7.77622L15.3598 7.22828C15.8335 6.83831 15.9546 6.16963 15.6479 5.63822L14.3336 3.36178C14.0268 2.83041 13.3869 2.60103 12.8125 2.81622L12.0052 3.11869C11.4522 3.32581 10.8484 2.97647 10.7515 2.39491L10.6098 1.54447C10.5089 0.939281 9.99038 0.5 9.37681 0.5H6.74822C6.13463 0.5 5.61606 0.939281 5.51522 1.5445L5.37347 2.39491C5.27638 2.9775 4.67181 3.32547 4.11984 3.11872L3.3125 2.81622C2.73803 2.60103 2.09828 2.83044 1.79144 3.36178L0.477157 5.63819C0.170376 6.16953 0.291501 6.83825 0.76522 7.22825L1.43081 7.77619C1.88681 8.15156 1.88591 8.84912 1.43081 9.22375L0.765188 9.77169C0.291501 10.1617 0.170345 10.8304 0.477126 11.3617L1.79144 13.6382C2.09825 14.1695 2.73788 14.3989 3.3125 14.1838L4.11981 13.8813C4.67291 13.6741 5.27653 14.0237 5.37344 14.6051L5.51519 15.4554C5.61606 16.0607 6.13463 16.5 6.74819 16.5H9.37678C9.99035 16.5 10.5089 16.0607 10.6098 15.4555L10.7515 14.6051C10.8485 14.0227 11.4531 13.6745 12.0051 13.8813L12.8125 14.1838C13.3871 14.399 14.0268 14.1696 14.3336 13.6382L15.6479 11.3617C15.9546 10.8304 15.8335 10.1617 15.3598 9.77172ZM13.251 13.0132L12.4437 12.7107C11.1531 12.2273 9.74463 13.0429 9.51853 14.3996L9.37681 15.25H6.74822L6.60647 14.3996C6.37994 13.0403 4.96941 12.2282 3.68131 12.7107L2.87397 13.0132L1.55969 10.7368L2.22528 10.1888C3.28931 9.31291 3.28709 7.68528 2.22528 6.81116L1.55969 6.26322L2.874 3.98678L3.68131 4.28925C4.97194 4.77269 6.38038 3.95706 6.60647 2.60041L6.74819 1.75H9.37678L9.5185 2.60041C9.74506 3.95984 11.1557 4.77169 12.4437 4.28925L13.251 3.98678L14.5656 6.26291C14.5656 6.26291 14.5655 6.263 14.5653 6.26319L13.8997 6.81112C12.8357 7.687 12.8378 9.31466 13.8997 10.1888L14.5653 10.7367L13.251 13.0132ZM8.0625 5.41666C6.36234 5.41666 4.97916 6.79984 4.97916 8.5C4.97916 10.2002 6.36234 11.5833 8.0625 11.5833C9.76266 11.5833 11.1458 10.2002 11.1458 8.5C11.1458 6.79984 9.76266 5.41666 8.0625 5.41666ZM8.0625 10.3333C7.05159 10.3333 6.22916 9.51091 6.22916 8.5C6.22916 7.48909 7.05159 6.66666 8.0625 6.66666C9.07341 6.66666 9.89584 7.48909 9.89584 8.5C9.89584 9.51091 9.07341 10.3333 8.0625 10.3333Z" fill="#DAEF14"/>
</g>
<defs>
<clipPath id="clip0_701_1235">
<rect width="16" height="16" fill="white" transform="translate(0.0625 0.5)"/>
</clipPath>
</defs>
</svg>
